%TF.GenerationSoftware,KiCad,Pcbnew,(6.0.6)*%
%TF.CreationDate,2022-07-27T15:13:06-07:00*%
%TF.ProjectId,EcobitNRF9160 EV3,45636f62-6974-44e5-9246-393136302045,rev?*%
%TF.SameCoordinates,Original*%
%TF.FileFunction,Soldermask,Top*%
%TF.FilePolarity,Negative*%
%FSLAX46Y46*%
G04 Gerber Fmt 4.6, Leading zero omitted, Abs format (unit mm)*
G04 Created by KiCad (PCBNEW (6.0.6)) date 2022-07-27 15:13:06*
%MOMM*%
%LPD*%
G01*
G04 APERTURE LIST*
G04 Aperture macros list*
%AMRoundRect*
0 Rectangle with rounded corners*
0 $1 Rounding radius*
0 $2 $3 $4 $5 $6 $7 $8 $9 X,Y pos of 4 corners*
0 Add a 4 corners polygon primitive as box body*
4,1,4,$2,$3,$4,$5,$6,$7,$8,$9,$2,$3,0*
0 Add four circle primitives for the rounded corners*
1,1,$1+$1,$2,$3*
1,1,$1+$1,$4,$5*
1,1,$1+$1,$6,$7*
1,1,$1+$1,$8,$9*
0 Add four rect primitives between the rounded corners*
20,1,$1+$1,$2,$3,$4,$5,0*
20,1,$1+$1,$4,$5,$6,$7,0*
20,1,$1+$1,$6,$7,$8,$9,0*
20,1,$1+$1,$8,$9,$2,$3,0*%
G04 Aperture macros list end*
%ADD10R,1.700000X1.700000*%
%ADD11O,1.700000X1.700000*%
%ADD12C,1.524000*%
%ADD13RoundRect,0.101600X-0.675000X0.600000X-0.675000X-0.600000X0.675000X-0.600000X0.675000X0.600000X0*%
%ADD14RoundRect,0.101600X-0.660400X-0.279400X0.660400X-0.279400X0.660400X0.279400X-0.660400X0.279400X0*%
%ADD15RoundRect,0.101600X-0.450000X0.525000X-0.450000X-0.525000X0.450000X-0.525000X0.450000X0.525000X0*%
%ADD16RoundRect,0.101600X0.525000X0.450000X-0.525000X0.450000X-0.525000X-0.450000X0.525000X-0.450000X0*%
%ADD17RoundRect,0.101600X0.401000X-0.486000X0.401000X0.486000X-0.401000X0.486000X-0.401000X-0.486000X0*%
%ADD18RoundRect,0.101600X-0.525000X-0.450000X0.525000X-0.450000X0.525000X0.450000X-0.525000X0.450000X0*%
%ADD19RoundRect,0.101600X1.500000X-1.300000X1.500000X1.300000X-1.500000X1.300000X-1.500000X-1.300000X0*%
%ADD20RoundRect,0.135350X-0.101250X0.396250X-0.101250X-0.396250X0.101250X-0.396250X0.101250X0.396250X0*%
%ADD21RoundRect,0.135350X0.101250X-0.396250X0.101250X0.396250X-0.101250X0.396250X-0.101250X-0.396250X0*%
G04 APERTURE END LIST*
D10*
%TO.C,J1*%
X125875000Y-120225000D03*
D11*
X128415000Y-120225000D03*
X130955000Y-120225000D03*
X133495000Y-120225000D03*
X136035000Y-120225000D03*
X138575000Y-120225000D03*
%TD*%
D12*
%TO.C,SENS-CO1*%
X134413295Y-99419994D03*
X134413295Y-81639994D03*
X132406695Y-81639994D03*
X124519995Y-89526694D03*
X124519995Y-91533294D03*
X132406695Y-99419994D03*
%TD*%
D13*
%TO.C,C1*%
X141732000Y-102024000D03*
X141732000Y-104124000D03*
%TD*%
D14*
%TO.C,AMP-CO1*%
X139188400Y-109810200D03*
X139188400Y-110750000D03*
X139188400Y-111689800D03*
X141931600Y-111689800D03*
X141931600Y-109810200D03*
%TD*%
D15*
%TO.C,R2*%
X135890000Y-106388000D03*
X135890000Y-107988000D03*
%TD*%
D16*
%TO.C,R3*%
X139484000Y-101854000D03*
X137884000Y-101854000D03*
%TD*%
D17*
%TO.C,IC1*%
X133670000Y-104124000D03*
X135570000Y-104124000D03*
X134620000Y-102124000D03*
%TD*%
D18*
%TO.C,C2*%
X137884000Y-104274000D03*
X139484000Y-104274000D03*
%TD*%
D19*
%TO.C,AFE-CO1*%
X132577266Y-111265267D03*
D20*
X131077266Y-109330267D03*
X131577266Y-109330267D03*
X132077266Y-109330267D03*
X132577266Y-109330267D03*
X133077266Y-109330267D03*
X133577266Y-109330267D03*
X134077266Y-109330267D03*
D21*
X134077266Y-113200267D03*
X133577266Y-113200267D03*
X133077266Y-113200267D03*
X132577266Y-113200267D03*
X132077266Y-113200267D03*
X131577266Y-113200267D03*
X131077266Y-113200267D03*
%TD*%
D18*
%TO.C,R1*%
X125130000Y-109340000D03*
X126730000Y-109340000D03*
%TD*%
%TO.C,C3*%
X135840000Y-114750000D03*
X137440000Y-114750000D03*
%TD*%
M02*
