%TF.GenerationSoftware,KiCad,Pcbnew,(6.0.6)*%
%TF.CreationDate,2022-08-03T15:09:15-07:00*%
%TF.ProjectId,ULPSM_R12,554c5053-4d5f-4523-9132-2e6b69636164,rev?*%
%TF.SameCoordinates,Original*%
%TF.FileFunction,Paste,Top*%
%TF.FilePolarity,Positive*%
%FSLAX46Y46*%
G04 Gerber Fmt 4.6, Leading zero omitted, Abs format (unit mm)*
G04 Created by KiCad (PCBNEW (6.0.6)) date 2022-08-03 15:09:15*
%MOMM*%
%LPD*%
G01*
G04 APERTURE LIST*
G04 Aperture macros list*
%AMRoundRect*
0 Rectangle with rounded corners*
0 $1 Rounding radius*
0 $2 $3 $4 $5 $6 $7 $8 $9 X,Y pos of 4 corners*
0 Add a 4 corners polygon primitive as box body*
4,1,4,$2,$3,$4,$5,$6,$7,$8,$9,$2,$3,0*
0 Add four circle primitives for the rounded corners*
1,1,$1+$1,$2,$3*
1,1,$1+$1,$4,$5*
1,1,$1+$1,$6,$7*
1,1,$1+$1,$8,$9*
0 Add four rect primitives between the rounded corners*
20,1,$1+$1,$2,$3,$4,$5,0*
20,1,$1+$1,$4,$5,$6,$7,0*
20,1,$1+$1,$6,$7,$8,$9,0*
20,1,$1+$1,$8,$9,$2,$3,0*%
G04 Aperture macros list end*
%ADD10RoundRect,0.250000X0.262500X0.450000X-0.262500X0.450000X-0.262500X-0.450000X0.262500X-0.450000X0*%
%ADD11R,1.524000X0.457200*%
%ADD12R,1.016000X1.549400*%
%ADD13R,1.193800X1.549400*%
%ADD14RoundRect,0.250000X-0.475000X0.250000X-0.475000X-0.250000X0.475000X-0.250000X0.475000X0.250000X0*%
%ADD15RoundRect,0.250000X-0.262500X-0.450000X0.262500X-0.450000X0.262500X0.450000X-0.262500X0.450000X0*%
%ADD16RoundRect,0.250000X-0.250000X-0.475000X0.250000X-0.475000X0.250000X0.475000X-0.250000X0.475000X0*%
%ADD17RoundRect,0.250000X-0.450000X0.262500X-0.450000X-0.262500X0.450000X-0.262500X0.450000X0.262500X0*%
G04 APERTURE END LIST*
D10*
%TO.C,R6*%
X160087508Y-35519995D03*
X161912508Y-35519995D03*
%TD*%
D11*
%TO.C,U1*%
X153993600Y-73199999D03*
X153993600Y-72550001D03*
X153993600Y-71899999D03*
X153993600Y-71250001D03*
X149906400Y-71250001D03*
X149906400Y-71899999D03*
X149906400Y-72550001D03*
X149906400Y-73199999D03*
%TD*%
D12*
%TO.C,C2*%
X155926500Y-35425000D03*
D13*
X157234600Y-35425000D03*
%TD*%
D14*
%TO.C,C1*%
X156675000Y-73000000D03*
X156675000Y-74900000D03*
%TD*%
D15*
%TO.C,R5*%
X154112500Y-32650000D03*
X155937500Y-32650000D03*
%TD*%
%TO.C,R2*%
X149425000Y-40965499D03*
X147600000Y-40965499D03*
%TD*%
D16*
%TO.C,C4*%
X153500000Y-44575000D03*
X155400000Y-44575000D03*
%TD*%
D14*
%TO.C,C3*%
X149230000Y-81580000D03*
X149230000Y-79680000D03*
%TD*%
D10*
%TO.C,R7*%
X156887500Y-77520000D03*
X155062500Y-77520000D03*
%TD*%
D15*
%TO.C,R8*%
X161950000Y-40665499D03*
X163775000Y-40665499D03*
%TD*%
%TO.C,R3*%
X149425000Y-43615499D03*
X151250000Y-43615499D03*
%TD*%
%TO.C,R4*%
X160237500Y-72200000D03*
X162062500Y-72200000D03*
%TD*%
D11*
%TO.C,U2*%
X153993900Y-39365500D03*
X153993900Y-40015498D03*
X153993900Y-40665500D03*
X153993900Y-41315498D03*
X158081100Y-41315498D03*
X158081100Y-40665500D03*
X158081100Y-40015498D03*
X158081100Y-39365500D03*
%TD*%
D17*
%TO.C,R1*%
X147625000Y-36362500D03*
X147625000Y-38187500D03*
%TD*%
M02*
