%TF.GenerationSoftware,KiCad,Pcbnew,(6.0.6)*%
%TF.CreationDate,2022-08-03T15:09:15-07:00*%
%TF.ProjectId,ULPSM_R12,554c5053-4d5f-4523-9132-2e6b69636164,rev?*%
%TF.SameCoordinates,Original*%
%TF.FileFunction,Copper,L1,Top*%
%TF.FilePolarity,Positive*%
%FSLAX46Y46*%
G04 Gerber Fmt 4.6, Leading zero omitted, Abs format (unit mm)*
G04 Created by KiCad (PCBNEW (6.0.6)) date 2022-08-03 15:09:15*
%MOMM*%
%LPD*%
G01*
G04 APERTURE LIST*
G04 Aperture macros list*
%AMRoundRect*
0 Rectangle with rounded corners*
0 $1 Rounding radius*
0 $2 $3 $4 $5 $6 $7 $8 $9 X,Y pos of 4 corners*
0 Add a 4 corners polygon primitive as box body*
4,1,4,$2,$3,$4,$5,$6,$7,$8,$9,$2,$3,0*
0 Add four circle primitives for the rounded corners*
1,1,$1+$1,$2,$3*
1,1,$1+$1,$4,$5*
1,1,$1+$1,$6,$7*
1,1,$1+$1,$8,$9*
0 Add four rect primitives between the rounded corners*
20,1,$1+$1,$2,$3,$4,$5,0*
20,1,$1+$1,$4,$5,$6,$7,0*
20,1,$1+$1,$6,$7,$8,$9,0*
20,1,$1+$1,$8,$9,$2,$3,0*%
G04 Aperture macros list end*
%TA.AperFunction,NonConductor*%
%ADD10C,0.200000*%
%TD*%
%TA.AperFunction,SMDPad,CuDef*%
%ADD11RoundRect,0.250000X0.262500X0.450000X-0.262500X0.450000X-0.262500X-0.450000X0.262500X-0.450000X0*%
%TD*%
%TA.AperFunction,SMDPad,CuDef*%
%ADD12R,1.524000X0.457200*%
%TD*%
%TA.AperFunction,SMDPad,CuDef*%
%ADD13R,1.016000X1.549400*%
%TD*%
%TA.AperFunction,SMDPad,CuDef*%
%ADD14R,1.193800X1.549400*%
%TD*%
%TA.AperFunction,SMDPad,CuDef*%
%ADD15RoundRect,0.250000X-0.475000X0.250000X-0.475000X-0.250000X0.475000X-0.250000X0.475000X0.250000X0*%
%TD*%
%TA.AperFunction,SMDPad,CuDef*%
%ADD16RoundRect,0.250000X-0.262500X-0.450000X0.262500X-0.450000X0.262500X0.450000X-0.262500X0.450000X0*%
%TD*%
%TA.AperFunction,SMDPad,CuDef*%
%ADD17RoundRect,0.250000X-0.250000X-0.475000X0.250000X-0.475000X0.250000X0.475000X-0.250000X0.475000X0*%
%TD*%
%TA.AperFunction,SMDPad,CuDef*%
%ADD18RoundRect,0.250000X-0.450000X0.262500X-0.450000X-0.262500X0.450000X-0.262500X0.450000X0.262500X0*%
%TD*%
%TA.AperFunction,ComponentPad*%
%ADD19C,1.524000*%
%TD*%
%TA.AperFunction,ComponentPad*%
%ADD20O,1.700000X1.700000*%
%TD*%
%TA.AperFunction,ComponentPad*%
%ADD21R,1.700000X1.700000*%
%TD*%
%TA.AperFunction,Conductor*%
%ADD22C,0.250000*%
%TD*%
%TA.AperFunction,Conductor*%
%ADD23C,0.177800*%
%TD*%
G04 APERTURE END LIST*
D10*
X132000000Y-29000000D02*
X168040000Y-29000000D01*
X168040000Y-29000000D02*
X168040000Y-84400000D01*
X168040000Y-84400000D02*
X132000000Y-84400000D01*
X132000000Y-84400000D02*
X132000000Y-29000000D01*
D11*
%TO.P,R6,2*%
%TO.N,Net-(C2-Pad2)*%
X160087508Y-35519995D03*
%TO.P,R6,1*%
%TO.N,Earth*%
X161912508Y-35519995D03*
%TD*%
D12*
%TO.P,U1,1*%
%TO.N,Net-(C1-Pad2)*%
X153993600Y-73199999D03*
%TO.P,U1,2,-*%
%TO.N,Net-(C1-Pad1)*%
X153993600Y-72550001D03*
%TO.P,U1,3,+*%
%TO.N,/VREF*%
X153993600Y-71899999D03*
%TO.P,U1,4,GND*%
%TO.N,Earth*%
X153993600Y-71250001D03*
%TO.P,U1,5,+*%
%TO.N,Net-(C3-Pad1)*%
X149906400Y-71250001D03*
%TO.P,U1,6,-*%
%TO.N,/VGAS*%
X149906400Y-71899999D03*
%TO.P,U1,7*%
X149906400Y-72550001D03*
%TO.P,U1,8,VREF*%
%TO.N,/VREG*%
X149906400Y-73199999D03*
%TD*%
D13*
%TO.P,C2,1*%
%TO.N,Net-(C2-Pad1)*%
X155926500Y-35425000D03*
D14*
%TO.P,C2,2*%
%TO.N,Net-(C2-Pad2)*%
X157234600Y-35425000D03*
%TD*%
D15*
%TO.P,C1,1*%
%TO.N,Net-(C1-Pad1)*%
X156675000Y-73000000D03*
%TO.P,C1,2*%
%TO.N,Net-(C1-Pad2)*%
X156675000Y-74900000D03*
%TD*%
D16*
%TO.P,R5,1*%
%TO.N,Net-(R5-Pad1)*%
X154112500Y-32650000D03*
%TO.P,R5,2*%
%TO.N,Net-(C2-Pad1)*%
X155937500Y-32650000D03*
%TD*%
%TO.P,R2,2*%
%TO.N,Net-(R2-Pad2)*%
X149425000Y-40965499D03*
%TO.P,R2,1*%
%TO.N,/VREF*%
X147600000Y-40965499D03*
%TD*%
D17*
%TO.P,C4,1*%
%TO.N,Net-(C4-Pad1)*%
X153500000Y-44575000D03*
%TO.P,C4,2*%
%TO.N,Net-(C4-Pad2)*%
X155400000Y-44575000D03*
%TD*%
D15*
%TO.P,C3,2*%
%TO.N,Earth*%
X149230000Y-81580000D03*
%TO.P,C3,1*%
%TO.N,Net-(C3-Pad1)*%
X149230000Y-79680000D03*
%TD*%
D11*
%TO.P,R7,1*%
%TO.N,Net-(C1-Pad2)*%
X156887500Y-77520000D03*
%TO.P,R7,2*%
%TO.N,Net-(C3-Pad1)*%
X155062500Y-77520000D03*
%TD*%
D16*
%TO.P,R8,1*%
%TO.N,Net-(R8-Pad1)*%
X161950000Y-40665499D03*
%TO.P,R8,2*%
%TO.N,Net-(C4-Pad2)*%
X163775000Y-40665499D03*
%TD*%
%TO.P,R3,1*%
%TO.N,Net-(R2-Pad2)*%
X149425000Y-43615499D03*
%TO.P,R3,2*%
%TO.N,Earth*%
X151250000Y-43615499D03*
%TD*%
%TO.P,R4,1*%
%TO.N,Net-(C1-Pad1)*%
X160237500Y-72200000D03*
%TO.P,R4,2*%
%TO.N,Net-(C1-Pad2)*%
X162062500Y-72200000D03*
%TD*%
D12*
%TO.P,U2,1*%
%TO.N,Net-(R5-Pad1)*%
X153993900Y-39365500D03*
%TO.P,U2,2,-*%
%TO.N,Net-(C4-Pad1)*%
X153993900Y-40015498D03*
%TO.P,U2,3,+*%
%TO.N,Net-(R2-Pad2)*%
X153993900Y-40665500D03*
%TO.P,U2,4,GND*%
%TO.N,Earth*%
X153993900Y-41315498D03*
%TO.P,U2,5,+*%
%TO.N,Net-(C2-Pad1)*%
X158081100Y-41315498D03*
%TO.P,U2,6,-*%
%TO.N,Net-(R8-Pad1)*%
X158081100Y-40665500D03*
%TO.P,U2,7*%
X158081100Y-40015498D03*
%TO.P,U2,8,VREF*%
%TO.N,/VREG*%
X158081100Y-39365500D03*
%TD*%
D18*
%TO.P,R1,1*%
%TO.N,/VREG*%
X147625000Y-36362500D03*
%TO.P,R1,2*%
%TO.N,/VREF*%
X147625000Y-38187500D03*
%TD*%
D19*
%TO.P,SENS-CO1,1,WORKING@1*%
%TO.N,Net-(C1-Pad1)*%
X153456700Y-66580000D03*
%TO.P,SENS-CO1,2*%
%TO.N,N/C*%
X145570000Y-58693300D03*
%TO.P,SENS-CO1,3*%
X145570000Y-56686700D03*
%TO.P,SENS-CO1,4,REFERENCE*%
%TO.N,Net-(C4-Pad1)*%
X153456700Y-48800000D03*
%TO.P,SENS-CO1,5,COUNTER*%
%TO.N,Net-(C4-Pad2)*%
X155463300Y-48800000D03*
%TO.P,SENS-CO1,6,WORKING@2*%
%TO.N,Net-(C1-Pad1)*%
X155463300Y-66580000D03*
%TD*%
D20*
%TO.P,J1,4,Pin_4*%
%TO.N,/VGAS*%
X136380000Y-61670000D03*
%TO.P,J1,3,Pin_3*%
%TO.N,/VREG*%
X136380000Y-59130000D03*
%TO.P,J1,2,Pin_2*%
%TO.N,/VREF*%
X136380000Y-56590000D03*
D21*
%TO.P,J1,1,Pin_1*%
%TO.N,Earth*%
X136380000Y-54050000D03*
%TD*%
D22*
%TO.N,Net-(C3-Pad1)*%
X149230000Y-75870000D02*
X149230000Y-79680000D01*
X151450000Y-73650000D02*
X149230000Y-75870000D01*
X151450000Y-71971399D02*
X151450000Y-73650000D01*
X150728602Y-71250001D02*
X151450000Y-71971399D01*
X149906400Y-71250001D02*
X150728602Y-71250001D01*
%TO.N,Earth*%
X147050000Y-54050000D02*
X164000000Y-71000000D01*
X164000000Y-71000000D02*
X164000000Y-77000000D01*
X164000000Y-77000000D02*
X159450000Y-81550000D01*
X159450000Y-81550000D02*
X149400000Y-81550000D01*
%TO.N,/VREG*%
X144745000Y-36375000D02*
X147612500Y-36375000D01*
X133730000Y-56480000D02*
X133730000Y-47390000D01*
X133730000Y-47390000D02*
X144745000Y-36375000D01*
X136380000Y-59130000D02*
X133730000Y-56480000D01*
%TO.N,/VREF*%
X137671601Y-56590000D02*
X136380000Y-56590000D01*
X152981600Y-71899999D02*
X137671601Y-56590000D01*
X153993600Y-71899999D02*
X152981600Y-71899999D01*
%TO.N,/VGAS*%
X146609999Y-71899999D02*
X136380000Y-61670000D01*
X149906400Y-71899999D02*
X146609999Y-71899999D01*
%TO.N,Earth*%
X153993600Y-70083600D02*
X153993600Y-71250001D01*
X153990000Y-70080000D02*
X153993600Y-70083600D01*
X153990000Y-69800000D02*
X153990000Y-70080000D01*
X138240000Y-54050000D02*
X153990000Y-69800000D01*
X136380000Y-54050000D02*
X138240000Y-54050000D01*
X166250000Y-37850000D02*
X166250000Y-44960000D01*
X163920000Y-35520000D02*
X166250000Y-37850000D01*
X159970000Y-51240000D02*
X152510000Y-51240000D01*
X161912500Y-35520000D02*
X163920000Y-35520000D01*
X166250000Y-44960000D02*
X159970000Y-51240000D01*
X152510000Y-51240000D02*
X151250000Y-49980000D01*
X151120000Y-49980000D02*
X147050000Y-54050000D01*
X151250000Y-49980000D02*
X151120000Y-49980000D01*
X136380000Y-54050000D02*
X147050000Y-54050000D01*
%TO.N,/VREF*%
X134820000Y-49230000D02*
X134820000Y-55030000D01*
X134820000Y-55030000D02*
X136380000Y-56590000D01*
X143084501Y-40965499D02*
X134820000Y-49230000D01*
X147600000Y-40965499D02*
X143084501Y-40965499D01*
%TO.N,/VREG*%
X135060000Y-59130000D02*
X136380000Y-59130000D01*
X133890000Y-60300000D02*
X135060000Y-59130000D01*
X133890000Y-62265000D02*
X133890000Y-60300000D01*
X144824999Y-73199999D02*
X133890000Y-62265000D01*
X149906400Y-73199999D02*
X144824999Y-73199999D01*
%TO.N,Net-(C3-Pad1)*%
X152932500Y-79650000D02*
X155062500Y-77520000D01*
X149400000Y-79650000D02*
X152932500Y-79650000D01*
%TO.N,Net-(C1-Pad2)*%
X156675000Y-74900000D02*
X160492500Y-74900000D01*
X160492500Y-74900000D02*
X162062500Y-73330000D01*
X162062500Y-73330000D02*
X162062500Y-72200000D01*
X156675000Y-77307500D02*
X156887500Y-77520000D01*
X156675000Y-74900000D02*
X156675000Y-77307500D01*
%TO.N,Net-(R8-Pad1)*%
X161950000Y-40665499D02*
X158081100Y-40665500D01*
X158081100Y-40015498D02*
X158081100Y-40665500D01*
%TO.N,Net-(R2-Pad2)*%
X149425000Y-40965499D02*
X149425000Y-43615499D01*
X153993900Y-40665500D02*
X152412500Y-40665499D01*
X152112500Y-40965499D02*
X149425000Y-40965499D01*
X152412500Y-40665499D02*
X152112500Y-40965499D01*
%TO.N,Earth*%
X151250000Y-49980000D02*
X151250000Y-43615499D01*
%TO.N,Net-(C2-Pad2)*%
X157234600Y-35425000D02*
X159992500Y-35425000D01*
X159992500Y-35425000D02*
X160087500Y-35520000D01*
%TO.N,Net-(C4-Pad1)*%
X156000000Y-42075000D02*
X153500000Y-44575000D01*
X153993900Y-40015498D02*
X155005900Y-40015498D01*
X155005900Y-40015498D02*
X156000000Y-41009598D01*
X156000000Y-41009598D02*
X156000000Y-42075000D01*
%TO.N,Earth*%
X153993900Y-41315498D02*
X152839201Y-41315498D01*
X152839201Y-41315498D02*
X151250000Y-42904699D01*
X151250000Y-42904699D02*
X151250000Y-43615499D01*
%TO.N,Net-(R5-Pad1)*%
X154125000Y-32662500D02*
X154125000Y-39234400D01*
%TO.N,/VREF*%
X147600000Y-38265499D02*
X147600000Y-40965499D01*
%TO.N,Net-(R5-Pad1)*%
X154125000Y-39234400D02*
X153993900Y-39365500D01*
%TO.N,Net-(C4-Pad2)*%
X155400000Y-44575000D02*
X155463300Y-44638300D01*
X155463300Y-44638300D02*
X155463300Y-48800000D01*
%TO.N,Net-(C2-Pad1)*%
X155926500Y-40172898D02*
X157069100Y-41315498D01*
%TO.N,Net-(C4-Pad2)*%
X161225000Y-44575000D02*
X163775000Y-42025000D01*
X163775000Y-42025000D02*
X163775000Y-40665499D01*
%TO.N,Net-(C2-Pad1)*%
X155937500Y-32650000D02*
X155951500Y-32664000D01*
X157069100Y-41315498D02*
X158081100Y-41315498D01*
X155951500Y-32664000D02*
X155951500Y-35325000D01*
%TO.N,Net-(C4-Pad1)*%
X153456700Y-44618300D02*
X153456700Y-48800000D01*
%TO.N,Net-(C2-Pad1)*%
X155926500Y-35425000D02*
X155926500Y-40172898D01*
%TO.N,Net-(C4-Pad1)*%
X153500000Y-44575000D02*
X153456700Y-44618300D01*
%TO.N,Net-(C4-Pad2)*%
X155400000Y-44575000D02*
X161225000Y-44575000D01*
%TO.N,/VREG*%
X147625000Y-35375000D02*
X152000000Y-31000000D01*
X161000000Y-37000000D02*
X158634500Y-39365500D01*
X147625000Y-36362500D02*
X147625000Y-35375000D01*
X159000000Y-31000000D02*
X161000000Y-33000000D01*
X158634500Y-39365500D02*
X158081100Y-39365500D01*
D23*
X161000008Y-33000010D02*
X161000008Y-37000002D01*
D22*
%TO.N,Net-(C1-Pad1)*%
X153993600Y-72550001D02*
X156225001Y-72550001D01*
X156225001Y-72550001D02*
X156675000Y-73000000D01*
X156675000Y-73000000D02*
X159437500Y-73000000D01*
%TO.N,/VGAS*%
X149906400Y-71899999D02*
X149906400Y-72550001D01*
%TO.N,Net-(C1-Pad1)*%
X159437500Y-73000000D02*
X160237500Y-72200000D01*
X160237500Y-71354200D02*
X160237500Y-72200000D01*
%TO.N,Net-(C1-Pad2)*%
X154800000Y-74900000D02*
X156675000Y-74900000D01*
X153993600Y-74093600D02*
X154800000Y-74900000D01*
%TO.N,Net-(C1-Pad1)*%
X155463300Y-66580000D02*
X160237500Y-71354200D01*
%TO.N,Net-(C1-Pad2)*%
X153993600Y-73199999D02*
X153993600Y-74093600D01*
%TO.N,Net-(C1-Pad1)*%
X153456700Y-66580000D02*
X155463300Y-66580000D01*
%TO.N,/VREG*%
X152000000Y-31000000D02*
X159000000Y-31000000D01*
%TD*%
M02*
