M48
;FILE_FORMAT=2:4
INCH
;TYPE=PLATED
T01C0.015
T02C0.031
T03C0.037
T04C0.040
;TYPE=NON_PLATED
T05C0.042
T06C0.166
%
T01
X+010900Y+011500
X+011300Y+010850
X+010500Y+017500
X+010600Y+015900
X+013100Y+010500
Y+011500
X+013600Y+010500
X+013900Y+016100
Y+016900
X+019350Y+013900
X+019900Y+012300
X+020300Y+013700
X+019850Y+015850
X+022600Y+010900
X+021500Y+015300
X+022800Y+017100
X+022100Y+015300
X+024800Y+010900
Y+013100
X+026000Y+014200
X+024300Y+015600
X+010600Y+012000
X+016300
X+017000Y+015000
X+022500Y+015100
X+024800Y+012100
X+015200Y+010700
X+020700Y+011500
X+020900Y+016750
T02
X+018394Y+010600
X+017606
X+014500Y+013706
Y+014494
X+021500
Y+013706
T03
X+018000Y+017700
T04
X+023500Y+010600
Y+013600
Y+011600
Y+012600
Y+014600
Y+015600
Y+016600
Y+017600
T05
X+021650Y+010450
X+014350Y+017750
T06
X+012000Y+014100
T00
M30
